<?xml version="1.0" encoding="UTF-8"?>
<svg id="Camada_1" data-name="Camada 1" xmlns="http://www.w3.org/2000/svg" viewBox="0 0 1626.26 1714.78">
  <defs>
    <style>
      .cls-1 {
        fill: #fff;
      }
    </style>
  </defs>
  <g>
    <path class="cls-1" d="M329,365.75c-.91.39-1.79.77-2.67,1.13-38.6,15.95-64.46,7.01-64.46,7.01,0,0-34.71-5.97-56.04-29.34-7.33,7.16-24.88,19.61-48.49,5.14-6.98-4.28-10.84-9.75-12.61-15.68-6.27-20.86,13.22-47.37,13.22-47.37,0,0,21-17.5,38.01,6.62,3.57-4.9,9.42-9.22,18.93-11.31,0,0,22.58-4.88,46.98,24,24.4,28.89,59.8,26.65,59.8,26.65,0,0,26.45,0,44.96-29.08,0,0,2.43,44.75-37.63,62.23Z"/>
    <path class="cls-1" d="M506.41,188.84l-1.7,2.43-13.65-50.17-163.6-70.35c-3.08,58.59-15.03,186.96-60.44,185.55-58.81-1.83-47.85-140.64-47.85-140.64-11.69-22.28-20.09,1.1-20.09,1.1,0,0-4.74,139.89-44.2,135.52-39.44-4.38-23.01-165.12-23.01-165.12l196.65-44.93,168.88,93.99,9.02,52.61Z"/>
    <path class="cls-1" d="M492.16,446.7s-67.65,99.98-231.12,162.28c-32.44,12.36-69,6.55-96.07-15.18l-1.82-1.46-2.91-157.08,34.16,13.44,10.56-47.93s7,45.67,18.68,54.43c0,0,92.68,29.01,211.54-69.87l4.37-114.45,3.42-5.36,49.2,181.18Z"/>
  </g>
  <path class="cls-1" d="M812.01,592.35v-155.96c0-31.48-10.26-40.67-37.49-40.67h-27.94v288.57h-113.16V0h154.19c94.93,0,136.86,51.86,136.86,140.4v102.2c0,42.89-15.89,69.83-40.63,86.38,29.1,15.9,43.11,46.46,43.11,104.59v158.79c0,72.85,20.51,91.95,20.51,91.95h-114.93s-20.51-19.1-20.51-91.95ZM768.86,305.2c26.17,0,40.67-16.27,40.67-48.45v-113.52c0-31.47-14.5-47.03-40.67-47.03h-21.57v209h21.57Z"/>
  <path class="cls-1" d="M1094.19,588.11h120.24v96.19h-233.4V0h231.63v96.19h-118.47v189.91h109.99v93.36h-109.99v208.65Z"/>
  <path class="cls-1" d="M289.63,958.07h-111.75v-111.4c0-22.28-10.96-33.24-32.53-33.6-20.16,0-31.83,12.73-31.83,29.71v107.51c0,22.99,8.13,33.6,30.41,43.14l55.17,18.39c32.89,10.96,57.29,25.82,73.2,44.2,15.91,18.74,23.7,46.33,23.7,83.11v139.69c0,42.44-13.09,76.03-38.9,100.44-26.17,24.75-62.24,37.13-107.86,37.13-93.72,0-146.41-44.91-146.41-122.36v-141.81h112.11v134.74c0,20.16,12.02,35.37,33.59,35.37,20.16,0,32.54-13.79,32.54-33.24v-131.2c0-22.28-12.03-38.19-35.72-48.45l-50.57-15.91c-33.24-10.26-57.29-25.11-72.14-44.91-15.21-19.81-22.63-48.1-22.63-84.88v-114.93c0-38.19,12.73-69.31,37.84-93.36,25.1-23.69,61.18-35.72,108.92-35.72s81.33,10.61,106.09,31.83c24.4,21.22,36.78,50.22,36.78,86.99v119.53Z"/>
  <path class="cls-1" d="M461.84,1313.83h120.24v96.19h-233.4v-684.3h231.63v96.19h-118.47v189.91h109.99v93.36h-109.99v208.65Z"/>
  <path class="cls-1" d="M827.14,1097.05l-7.07-183.89v-187.43h106.45v684.3h-109.63l-79.57-400.68h-6.37l7.07,179.65v221.03h-106.45v-684.3h115.99l73.91,371.32h5.66Z"/>
  <path class="cls-1" d="M1145.68,1030.48h112.81v684.3h-112.81v-303.43h-61.54v303.43h-113.17v-684.3h113.17v284.68h61.54v-284.68Z"/>
  <path class="cls-1" d="M1508.14,1714.78l-11.31-146.41-79.93-.71-11.31,147.12h-116.7l80.99-684.3h176.82l79.57,684.3h-118.12ZM1425.04,1475.01h64.36l-18.03-238.36-10.26-101.14h-7.78l-9.55,101.14-18.74,238.36Z"/>
  <g>
    <path class="cls-1" d="M978.61,842.43v-84.73h41.73c16.59,0,25.52,8.93,25.52,23.1,0,7.27-4.47,13.4-10.34,15.82,7.15,2.68,12.89,8.42,12.89,20.55,0,15.44-10.34,25.27-31.65,25.27h-38.16ZM995.71,772.37v18.38h22.33c7.02,0,10.72-3.19,10.72-9.19,0-6.51-3.45-9.19-11.74-9.19h-21.31ZM1018.17,828.01c8.17,0,13.02-5.23,13.02-12.12,0-7.4-4.85-10.72-12.76-10.72h-22.71v22.84h22.46Z"/>
    <path class="cls-1" d="M1109.42,842.43l-5.36-17.48h-31.26l-6,17.48h-18.76l30.24-84.73h20.55l29.86,84.73h-19.27ZM1088.36,776.71h-.13l-10.85,33.69h21.57l-10.59-33.69Z"/>
    <path class="cls-1" d="M1184.58,842.43v-21.82c0-8.17-3.06-11.36-13.27-11.36h-18.89v33.18h-17.23v-84.73h43c15.7,0,26.03,10.46,26.03,24.5,0,9.06-4.47,16.72-12.63,19.65,7.53,2.42,10.34,6.64,10.34,16.59v23.99h-17.36ZM1152.42,772.37v22.59h22.2c9.44,0,13.02-4.72,13.02-11.23s-3.57-11.36-12.38-11.36h-22.84Z"/>
    <path class="cls-1" d="M1211.51,842.43v-84.73h41.73c16.59,0,25.52,8.93,25.52,23.1,0,7.27-4.47,13.4-10.34,15.82,7.15,2.68,12.89,8.42,12.89,20.55,0,15.44-10.34,25.27-31.65,25.27h-38.16ZM1228.61,772.37v18.38h22.33c7.02,0,10.72-3.19,10.72-9.19,0-6.51-3.45-9.19-11.74-9.19h-21.31ZM1251.07,828.01c8.17,0,13.02-5.23,13.02-12.12,0-7.4-4.85-10.72-12.76-10.72h-22.71v22.84h22.46Z"/>
    <path class="cls-1" d="M1287.32,842.43v-84.73h62.27v14.8h-45.05v18.12h41.47v14.93h-41.47v21.82h47.09v15.06h-64.32Z"/>
    <path class="cls-1" d="M1407.14,842.43v-21.82c0-8.17-3.06-11.36-13.27-11.36h-18.89v33.18h-17.23v-84.73h43c15.7,0,26.03,10.46,26.03,24.5,0,9.06-4.47,16.72-12.63,19.65,7.53,2.42,10.34,6.64,10.34,16.59v23.99h-17.36ZM1374.99,772.37v22.59h22.2c9.44,0,13.02-4.72,13.02-11.23s-3.57-11.36-12.38-11.36h-22.84Z"/>
    <path class="cls-1" d="M1053.26,927.17c-3.57,19.27-16.84,32.03-36.5,32.03-22.2,0-39.18-15.19-39.18-44.28s15.19-46.2,39.43-46.2c21.18,0,34.58,13.53,36.24,30.63h-17.74c-2.42-9.57-9.95-15.31-18.38-15.31-14.68,0-21.57,11.36-21.57,29.86s6.89,29.86,20.67,29.86c10.46,0,16.84-6,19.27-16.59h17.74Z"/>
    <path class="cls-1" d="M1059.39,956.27v-84.73h17.74v69.29h41.98v15.44h-59.72Z"/>
    <path class="cls-1" d="M1172.59,871.53h18.12v56.53c0,20.55-12.63,31.14-34.84,31.14-20.55,0-33.43-9.7-33.43-30.12v-57.55h17.99v55.89c0,10.46,5.61,17.1,15.19,17.1,11.36,0,16.97-5.36,16.97-16.46v-56.53Z"/>
    <path class="cls-1" d="M1199.77,956.27v-84.73h41.73c16.59,0,25.52,8.93,25.52,23.1,0,7.27-4.47,13.4-10.34,15.82,7.15,2.68,12.89,8.42,12.89,20.55,0,15.44-10.34,25.27-31.65,25.27h-38.16ZM1216.87,886.21v18.38h22.33c7.02,0,10.72-3.19,10.72-9.19,0-6.51-3.45-9.19-11.74-9.19h-21.31ZM1239.33,941.85c8.17,0,13.02-5.23,13.02-12.12,0-7.4-4.85-10.72-12.76-10.72h-22.71v22.84h22.46Z"/>
  </g>
</svg>