<?xml version="1.0" encoding="UTF-8"?>
<svg id="Camada_1" data-name="Camada 1" xmlns="http://www.w3.org/2000/svg" viewBox="0 0 1119.25 1697.3">
  <defs>
    <style>
      .cls-1 {
        fill: #fff;
      }
    </style>
  </defs>
  <path class="cls-1" d="M593.84,958.04c-2.64,1.13-5.28,2.26-7.93,3.4-114.26,47.18-190.87,20.76-190.87,20.76,0,0-102.75-17.74-165.96-86.9-21.7,21.23-73.69,58.02-143.6,15.19-20.66-12.64-32.08-28.87-37.27-46.42-18.59-61.8,39.06-140.3,39.06-140.3,0,0,62.27-51.8,112.56,19.62,10.66-14.53,27.93-27.27,56.14-33.49,0,0,66.8-14.43,139.07,71.05,72.27,85.58,177.1,78.97,177.1,78.97,0,0,78.31,0,133.13-86.14,0,0,7.17,132.56-111.43,184.27Z"/>
  <path class="cls-1" d="M1119.25,434.14l-5.04,7.19-40.42-148.57-484.5-208.32c-9.13,173.5-44.51,553.66-179,549.48-174.17-5.41-141.71-416.5-141.71-416.5-34.61-65.97-59.48,3.26-59.48,3.26,0,0-14.05,414.28-130.89,401.34C-38.61,609.05,10.05,133.04,10.05,133.04L592.42,0l500.11,278.35,26.71,155.79Z"/>
  <path class="cls-1" d="M1077.05,1197.77s-200.35,296.08-684.45,480.57c-96.05,36.61-204.35,19.4-284.49-44.97l-5.4-4.34-8.63-465.17,101.15,39.81,31.27-141.94s20.72,135.25,55.33,161.19c0,0,274.48,85.92,626.46-206.9l12.94-338.94,10.12-15.87,145.69,536.55Z"/>
</svg>