<?xml version="1.0" encoding="UTF-8"?>
<svg id="Camada_1" data-name="Camada 1" xmlns="http://www.w3.org/2000/svg" viewBox="0 0 1923.8 2108.41">
  <defs>
    <style>
      .cls-1 {
        fill: #55286b;
      }

      .cls-2 {
        fill: #f7f3e3;
      }

      .cls-3 {
        fill: #f9f3e3;
      }

      .cls-4 {
        fill: #38172c;
      }
    </style>
  </defs>
  <path class="cls-1" d="M1519.48,1535.39c-217.53,317.33-513.73,485.83-557.59,494.65-43.79-8.82-340-177.31-557.58-494.65C-9.94,931.1,86.61,305.01,86.61,305.01c0,0,130.82-102.78,411.15-168.2,154.62-36.07,267.84-49.71,343.73-54.13h.11c63.49-5.9,166.89-10.65,282.53,3.11,73.62,6.57,173.47,21.05,301.9,51.02,280.33,65.38,411.15,168.2,411.15,168.2,0,0,96.55,626.09-317.7,1230.38Z"/>
  <path class="cls-3" d="M1875.16,299.15l-2.32-14.98-11.92-9.36c-5.61-4.42-140.8-108.86-426.15-175.42-112.34-26.21-215.52-43.65-306.66-51.81-51.2-6.08-104.64-9.15-158.86-9.15-43.98,0-87.82,1.99-130.36,5.91-100.88,5.9-218.59,24.43-349.87,55.05C203.68,165.99,68.49,270.39,62.88,274.8l-11.94,9.37-2.31,14.98c-1.02,6.6-24.62,164.42,3.33,398.99,16.37,137.41,47.18,272.85,91.59,402.52,55.53,162.18,132.61,315.74,229.06,456.45,119.01,173.58,257.15,297.9,352.08,371.63,104.67,81.3,196.42,132.28,229.59,138.96l7.59,1.52,7.59-1.52c33.19-6.68,124.97-57.65,229.65-138.96,94.93-73.71,233.05-198.05,352.05-371.63,96.45-140.7,173.51-294.27,229.06-456.45,44.4-129.67,75.22-265.11,91.59-402.52,27.94-234.58,4.35-392.39,3.33-398.99ZM1154.79,1865.88c-91.74,71.59-166.01,112.77-192.89,123.81-26.9-11.06-101.14-52.24-192.88-123.83-89.81-70.08-220.5-188.09-333.03-352.2-208.89-304.72-282.47-615.13-307.4-821.86-22.16-183.72-10.94-320.53-5.97-365.25,14.76-9.95,42.83-27.51,84.42-48.14,59.57-29.56,159.89-71.62,299.44-104.19,157.53-36.76,269.58-49.19,336.13-53.13h.77l1.77-.16c40.44-3.76,82.19-5.67,124.09-5.67,51.4,0,101.98,2.92,150.35,8.67l.56.07.56.05c87.71,7.84,187.5,24.71,296.59,50.17,139.57,32.55,239.87,74.62,299.44,104.16,41.6,20.65,69.67,38.23,84.42,48.15,4.98,44.76,16.19,181.55-5.97,365.26-24.93,206.73-98.51,517.14-307.4,821.86-112.52,164.14-243.19,282.14-333,352.21Z"/>
  <path class="cls-3" d="M1913.13,293.28l-4.64-29.97-23.81-18.69c-5.89-4.64-147.36-114.11-441.19-182.65-113.91-26.57-218.67-44.27-311.41-52.61-52.47-6.22-107.26-9.36-162.84-9.36-44.91,0-89.74,2.03-133.24,6.02-102.9,6.06-222.57,24.89-355.71,55.94-121.75,28.42-231.57,66.8-326.39,114.06-73.01,36.4-110.69,65.36-114.76,68.55l-23.88,18.74-4.61,29.98c-1.06,6.82-25.39,169.86,3.16,409.38,16.7,140.16,48.11,278.25,93.39,410.42,56.64,165.43,135.28,322.12,233.73,465.72,121.81,177.67,263.1,304.85,360.19,380.25,99.09,76.97,200.08,137.12,245.61,146.29l15.15,3.05,15.18-3.05c45.54-9.17,146.55-69.32,245.62-146.29,97.07-75.36,238.34-202.51,360.19-380.25,98.4-143.56,177.04-300.25,233.71-465.72,45.28-132.24,76.71-270.34,93.39-410.42,28.54-239.57,4.21-402.56,3.16-409.41ZM1871.83,698.14c-16.37,137.41-47.19,272.85-91.59,402.52-55.55,162.18-132.61,315.74-229.06,456.45-119,173.58-257.12,297.92-352.05,371.63-104.68,81.32-196.46,132.28-229.65,138.96l-7.59,1.52-7.59-1.52c-33.18-6.68-124.92-57.66-229.59-138.96-94.93-73.73-233.07-198.05-352.08-371.63-96.45-140.7-173.53-294.27-229.06-456.45-44.42-129.67-75.22-265.11-91.59-402.52-27.95-234.58-4.35-392.39-3.33-398.99l2.31-14.98,11.94-9.37c5.61-4.4,140.8-108.8,426.15-175.41,131.28-30.63,248.98-49.15,349.87-55.05,42.54-3.92,86.38-5.91,130.36-5.91,54.22,0,107.66,3.07,158.86,9.15,91.14,8.16,194.32,25.6,306.66,51.81,285.35,66.57,420.54,171,426.15,175.42l11.92,9.36,2.32,14.98c1.02,6.6,24.6,164.42-3.33,398.99Z"/>
  <path class="cls-4" d="M1875.16,299.15l-2.32-14.98-11.92-9.36c-5.61-4.42-140.8-108.86-426.15-175.42-112.34-26.21-215.52-43.65-306.66-51.81-51.2-6.08-104.64-9.15-158.86-9.15-43.98,0-87.82,1.99-130.36,5.91-100.88,5.9-218.59,24.43-349.87,55.05C203.68,165.99,68.49,270.39,62.88,274.8l-11.94,9.37-2.31,14.98c-1.02,6.6-24.62,164.42,3.33,398.99,16.37,137.41,47.18,272.85,91.59,402.52,55.53,162.18,132.61,315.74,229.06,456.45,119.01,173.58,257.15,297.9,352.08,371.63,104.67,81.3,196.42,132.28,229.59,138.96l7.59,1.52,7.59-1.52c33.19-6.68,124.97-57.65,229.65-138.96,94.93-73.71,233.05-198.05,352.05-371.63,96.45-140.7,173.51-294.27,229.06-456.45,44.4-129.67,75.22-265.11,91.59-402.52,27.94-234.58,4.35-392.39,3.33-398.99ZM1519.48,1535.39c-217.53,317.33-513.73,485.83-557.59,494.65-43.79-8.82-340-177.31-557.58-494.65C-9.94,931.1,86.61,305.01,86.61,305.01c0,0,130.82-102.78,411.15-168.2,154.62-36.07,267.84-49.71,343.73-54.13h.11c63.49-5.9,166.89-10.65,282.53,3.11,73.62,6.57,173.47,21.05,301.9,51.02,280.33,65.38,411.15,168.2,411.15,168.2,0,0,96.55,626.09-317.7,1230.38Z"/>
  <path class="cls-4" d="M1519.48,1535.39c-217.53,317.33-513.73,485.83-557.59,494.65-43.79-8.82-340-177.31-557.58-494.65C-9.94,931.1,86.61,305.01,86.61,305.01c0,0,130.82-102.78,411.15-168.2,154.62-36.07,267.84-49.71,343.73-54.13h.11c63.49-5.9,166.89-10.65,282.53,3.11,73.62,6.57,173.47,21.05,301.9,51.02,280.33,65.38,411.15,168.2,411.15,168.2,0,0,96.55,626.09-317.7,1230.38Z"/>
  <path class="cls-2" d="M1519.48,1535.39c-217.53,317.33-513.73,485.83-557.59,494.65-43.79-8.82-340-177.31-557.58-494.65C-9.94,931.1,86.61,305.01,86.61,305.01c0,0,130.82-102.78,411.15-168.2,154.62-36.07,267.84-49.71,343.73-54.13h.11c63.49-5.9,166.89-10.65,282.53,3.11,73.62,6.57,173.47,21.05,301.9,51.02,280.33,65.38,411.15,168.2,411.15,168.2,0,0,96.55,626.09-317.7,1230.38Z"/>
  <path class="cls-4" d="M1390.02,1070.89c-192.71,115.58-439.06,152.87-658.56,108.74v-490.13c45.03-18.55,92.67-33.48,140.77-44.73v388.74c-.69,17.88-19.34,35.4-71.11,38.19,22.02-.51,49.55-.61,74.8-3.19,116.83-14.33,259.9-33.91,346.73-113.06,83.88-89.49-45.81-161.26-125.38-185.89,99.95-16.25,221.73-37.99,300.72-101.88,41.57-34.62,44.23-84.78-1.52-122.09-72.52-57.49-175.04-78.46-268.18-95.73v-64.28c0-21.8,11-42.22,29.38-53.94,21.26-13.56,54.1-23.4,104.8-26.12-85.05,1.97-222.8-24.57-231.46,95.95-.01.22-.03.43-.04.63v34.75c-130.89-13.17-266.07-12.88-396.83.87v234.67c-46.5,27.69-89.68,59.85-126.88,98.83h0c-165.73,174.15-80.18,358.34,126.88,438.5-1.68,48.01,18.02,135.8-158.72,145.29,95.55-2.21,251.31,28.15,256.05-112.89,251.67,50.72,587.33-8.61,772.44-195.54-37.27,21.55-80.37,25.58-113.88,24.3ZM969.55,1001.71v-209.08c223.22,54.06,222.19,155.35,0,209.08ZM1128.29,618.18v-111.95c135.36,28.99,278.38,107.51,71.01,181.98-73.37,25.11-151.66,37.03-229.75,43.98v-105.24c52.68-7.08,106.11-10.08,158.73-8.78ZM731.45,480.31c46.26-3.08,94.1-4.07,140.77-3.05,27.6.68,101.77,4.9,138.26,9.24,1.02.12,2,.23,2.95.35,3.92.47,7.8.94,11.68,1.44.37.04.75.1,1.12.15,3.05.39,4.72.59,4.72.59v67.3c-43.2,0-127.12,18.53-158.73,25.88h0c-1.51.36-3.01.7-4.51,1.06h-.04c-.48.12-.97.23-1.45.35-1.15.28-2.15.51-3.02.72-.32.08-.62.17-.95.23-.58.14-1.08.26-1.46.35-.3.08-.62.15-.92.23-.03.01-.07.01-.1.01-43.87,10.67-86.83,24.2-128.31,40.84v-145.69ZM634.13,1135.4c-178.43-103.06-149.69-271.71,0-386.23v386.23Z"/>
</svg>